<?xml version="1.0" encoding="UTF-8"?>
<svg width="40px" height="40px" viewBox="0 0 40 40" version="1.1" xmlns="http://www.w3.org/2000/svg" xmlns:xlink="http://www.w3.org/1999/xlink">
    <title>Artboard</title>
    <g id="Artboard" stroke="none" stroke-width="1" fill="none" fill-rule="evenodd">
        <rect fill="#FF595E" x="0" y="0" width="40" height="40"></rect>
        <rect id="Rectangle-Copy" fill="#000000" x="2.72" y="2.8" width="34.4" height="34.4"></rect>
        <path d="M8.4032,10.8 L8.5824,9.7824 L6.112,9.7824 L6.2592,8.976 L8.576,8.976 L8.7424,8.0096 L6.4256,8.0096 L6.56,7.2736 L8.9856,7.2736 L9.1584,6.256 L5.2736,6.256 L4.4736,10.8 L8.4032,10.8 Z M10.4448,10.8 L11.3792,9.6736 C11.5285333,9.5072 11.6202667,9.392 11.6544,9.328 L11.6544,9.328 L11.6672,9.328 C11.68,9.40053333 11.7333333,9.51786667 11.8272,9.68 L11.8272,9.68 L12.4288,10.8 L14.0736,10.8 L12.736,8.5152 L14.8096,6.256 L13.1264,6.256 L12.1792,7.376 C12.0682667,7.49973333 11.9914667,7.6 11.9488,7.6768 L11.9488,7.6768 L11.9296,7.6768 C11.9125333,7.58293333 11.872,7.48266667 11.808,7.376 L11.808,7.376 L11.232,6.256 L9.6,6.256 L10.912,8.4704 L8.7424,10.8 L10.4448,10.8 Z M17.152,10.8 L17.7536,7.3888 L19.2192,7.3888 L19.4176,6.256 L15.0272,6.256 L14.8288,7.3888 L16.2944,7.3888 L15.6928,10.8 L17.152,10.8 Z M23.0272,10.8 L23.2064,9.7824 L20.736,9.7824 L20.8832,8.976 L23.2,8.976 L23.3664,8.0096 L21.0496,8.0096 L21.184,7.2736 L23.6096,7.2736 L23.7824,6.256 L19.8976,6.256 L19.0976,10.8 L23.0272,10.8 Z M25.0944,10.8 L25.4592,8.7008 L25.5808,8.016 L25.6,8.016 C25.6469333,8.1696 25.7344,8.35946667 25.8624,8.5856 L25.8624,8.5856 L27.0208,10.8 L28.4608,10.8 L29.2608,6.256 L27.9232,6.256 L27.552,8.3744 C27.5392,8.44693333 27.52,8.55893333 27.4944,8.7104 C27.4688,8.86186667 27.4496,8.9696 27.4368,9.0336 L27.4368,9.0336 L27.4176,9.0336 C27.3536,8.82453333 27.2682667,8.62186667 27.1616,8.4256 L27.1616,8.4256 L26.08,6.256 L24.5568,6.256 L23.7568,10.8 L25.0944,10.8 Z M31.6992,10.8 C32.2069333,10.8 32.6570667,10.7296 33.0496,10.5888 C33.4421333,10.448 33.7546667,10.256 33.9872,10.0128 C34.2197333,9.7696 34.3946667,9.49866667 34.512,9.2 C34.6293333,8.90133333 34.688,8.58346667 34.688,8.2464 C34.688,7.56373333 34.4661333,7.06133333 34.0224,6.7392 C33.5786667,6.41706667 32.992,6.256 32.2624,6.256 L32.2624,6.256 L30.1312,6.256 L29.3312,10.8 L31.6992,10.8 Z M31.68,9.8016 L30.9632,9.8016 L31.4176,7.2544 L32.1856,7.2544 C32.4544,7.2544 32.6826667,7.3408 32.8704,7.5136 C33.0581333,7.6864 33.152,7.95626667 33.152,8.3232 C33.152,8.5024 33.1264,8.67413333 33.0752,8.8384 C33.024,9.00266667 32.9450667,9.15946667 32.8384,9.3088 C32.7317333,9.45813333 32.5792,9.5776 32.3808,9.6672 C32.1824,9.7568 31.9488,9.8016 31.68,9.8016 L31.68,9.8016 Z M5.9328,18.48 L6.7328,13.936 L5.2736,13.936 L4.4736,18.48 L5.9328,18.48 Z M8.1408,18.48 L8.5056,16.3808 L8.6272,15.696 L8.6464,15.696 C8.69333333,15.8496 8.7808,16.0394667 8.9088,16.2656 L8.9088,16.2656 L10.0672,18.48 L11.5072,18.48 L12.3072,13.936 L10.9696,13.936 L10.5984,16.0544 C10.5856,16.1269333 10.5664,16.2389333 10.5408,16.3904 C10.5152,16.5418667 10.496,16.6496 10.4832,16.7136 L10.4832,16.7136 L10.464,16.7136 C10.4,16.5045333 10.3146667,16.3018667 10.208,16.1056 L10.208,16.1056 L9.1264,13.936 L7.6032,13.936 L6.8032,18.48 L8.1408,18.48 Z M5.9328,26.16 L6.1888,24.7136 L7.392,24.7136 C7.776,24.7136 8.10986667,24.6645333 8.3936,24.5664 C8.67733333,24.4682667 8.896,24.3349333 9.0496,24.1664 C9.2032,23.9978667 9.3152,23.8197333 9.3856,23.632 C9.456,23.4442667 9.4912,23.2437333 9.4912,23.0304 C9.4912,22.8085333 9.4528,22.6122667 9.376,22.4416 C9.2992,22.2709333 9.2,22.1344 9.0784,22.032 C8.9568,21.9296 8.8096,21.8464 8.6368,21.7824 C8.464,21.7184 8.2944,21.6746667 8.128,21.6512 C7.9616,21.6277333 7.7824,21.616 7.5904,21.616 L7.5904,21.616 L5.2736,21.616 L4.4736,26.16 L5.9328,26.16 Z M7.1104,23.7536 L6.3616,23.7536 L6.5664,22.5952 L7.2896,22.5952 C7.71626667,22.5952 7.9296,22.7616 7.9296,23.0944 C7.9296,23.2778667 7.8656,23.4336 7.7376,23.5616 C7.6096,23.6896 7.40053333,23.7536 7.1104,23.7536 L7.1104,23.7536 Z M12.0256,26.16 L12.288,24.6304 L14.6176,21.616 L13.0176,21.616 L11.8912,23.2096 C11.8058667,23.3248 11.7418667,23.4336 11.6992,23.536 L11.6992,23.536 L11.6864,23.536 C11.6864,23.4421333 11.6629333,23.3333333 11.616,23.2096 L11.616,23.2096 L11.072,21.616 L9.5616,21.616 L10.8224,24.6304 L10.56,26.16 L12.0256,26.16 Z M18.2976,26.16 L18.4832,25.1232 L16.0256,25.1232 L18.8288,22.5696 L18.9952,21.616 L14.912,21.616 L14.7264,22.6592 L17.0048,22.6592 L14.1888,25.2064 L14.0224,26.16 L18.2976,26.16 Z" id="EXTENDINPYZ" fill="#FFFFFF" fill-rule="nonzero"></path>
        <g id="Group" transform="translate(21.920000, 20.000000)" stroke-width="10">
            <rect id="Rectangle" stroke="#FFFFFF" x="7.72" y="5" width="1" height="2.8"></rect>
            <rect id="Rectangle-Copy-2" stroke="#FF595E" x="5" y="7.8" width="1" height="2.8"></rect>
        </g>
    </g>
</svg>