<?xml version="1.0" encoding="UTF-8"?>
<svg width="40px" height="40px" viewBox="0 0 40 40" version="1.1" xmlns="http://www.w3.org/2000/svg" xmlns:xlink="http://www.w3.org/1999/xlink">
    <title>Artboard</title>
    <defs>
        <linearGradient x1="50%" y1="0%" x2="50%" y2="100%" id="linearGradient-1">
            <stop stop-color="#FF1C64" offset="0%"></stop>
            <stop stop-color="#AC0A5B" offset="100%"></stop>
        </linearGradient>
    </defs>
    <g id="Artboard" stroke="none" stroke-width="1" fill="none" fill-rule="evenodd">
        <circle id="Oval" fill="url(#linearGradient-1)" cx="20" cy="20" r="18"></circle>
        <path d="M7.528,25 L8.088,21.836 L10.72,21.836 C11.56,21.836 12.2903333,21.7286667 12.911,21.514 C13.5316667,21.2993333 14.01,21.0076667 14.346,20.639 C14.682,20.2703333 14.927,19.8806667 15.081,19.47 C15.235,19.0593333 15.312,18.6206667 15.312,18.154 C15.312,17.6686667 15.228,17.2393333 15.06,16.866 C14.892,16.4926667 14.675,16.194 14.409,15.97 C14.143,15.746 13.821,15.564 13.443,15.424 C13.065,15.284 12.694,15.1883333 12.33,15.137 C11.966,15.0856667 11.574,15.06 11.154,15.06 L11.154,15.06 L6.086,15.06 L4.336,25 L7.528,25 Z M10.104,19.736 L8.466,19.736 L8.914,17.202 L10.496,17.202 C11.4293333,17.202 11.896,17.566 11.896,18.294 C11.896,18.6953333 11.756,19.036 11.476,19.316 C11.196,19.596 10.7386667,19.736 10.104,19.736 L10.104,19.736 Z M20.856,25 L21.43,21.654 L26.526,15.06 L23.026,15.06 L20.562,18.546 C20.3753333,18.798 20.2353333,19.036 20.142,19.26 L20.142,19.26 L20.114,19.26 C20.114,19.0546667 20.0626667,18.8166667 19.96,18.546 L19.96,18.546 L18.77,15.06 L15.466,15.06 L18.224,21.654 L17.65,25 L20.856,25 Z M34.576,25 L34.982,22.732 L29.606,22.732 L35.738,17.146 L36.102,15.06 L27.17,15.06 L26.764,17.342 L31.748,17.342 L25.588,22.914 L25.224,25 L34.576,25 Z" id="PYZ" fill="#FFFFFF" fill-rule="nonzero"></path>
    </g>
</svg>