<?xml version="1.0" encoding="UTF-8"?>
<svg width="40px" height="40px" viewBox="0 0 40 40" version="1.1" xmlns="http://www.w3.org/2000/svg" xmlns:xlink="http://www.w3.org/1999/xlink">
    <title>Artboard</title>
    <defs>
        <linearGradient x1="87.9440158%" y1="6.81047627%" x2="10.2465162%" y2="100%" id="linearGradient-1">
            <stop stop-color="#AE373C" offset="0%"></stop>
            <stop stop-color="#FF6A6F" offset="66.8425233%"></stop>
            <stop stop-color="#FF595E" offset="100%"></stop>
        </linearGradient>
    </defs>
    <g id="Artboard" stroke="none" stroke-width="1" fill="none" fill-rule="evenodd">
        <rect id="Rectangle-Copy" fill="url(#linearGradient-1)" x="3" y="3" width="34" height="34"></rect>
        <rect id="Rectangle-Copy" fill="#000000" x="6" y="6" width="28" height="28"></rect>
        <path d="M10.52,16 L10.92,13.74 L12.8,13.74 C13.4,13.74 13.9216667,13.6633333 14.365,13.51 C14.8083333,13.3566667 15.15,13.1483333 15.39,12.885 C15.63,12.6216667 15.805,12.3433333 15.915,12.05 C16.025,11.7566667 16.08,11.4433333 16.08,11.11 C16.08,10.7633333 16.02,10.4566667 15.9,10.19 C15.78,9.92333333 15.625,9.71 15.435,9.55 C15.245,9.39 15.015,9.26 14.745,9.16 C14.475,9.06 14.21,8.99166667 13.95,8.955 C13.69,8.91833333 13.41,8.9 13.11,8.9 L13.11,8.9 L9.49,8.9 L8.24,16 L10.52,16 Z M12.36,12.24 L11.19,12.24 L11.51,10.43 L12.64,10.43 C13.3066667,10.43 13.64,10.69 13.64,11.21 C13.64,11.4966667 13.54,11.74 13.34,11.94 C13.14,12.14 12.8133333,12.24 12.36,12.24 L12.36,12.24 Z M20.04,16 L20.45,13.61 L24.09,8.9 L21.59,8.9 L19.83,11.39 C19.6966667,11.57 19.5966667,11.74 19.53,11.9 L19.53,11.9 L19.51,11.9 C19.51,11.7533333 19.4733333,11.5833333 19.4,11.39 L19.4,11.39 L18.55,8.9 L16.19,8.9 L18.16,13.61 L17.75,16 L20.04,16 Z M29.84,16 L30.13,14.38 L26.29,14.38 L30.67,10.39 L30.93,8.9 L24.55,8.9 L24.26,10.53 L27.82,10.53 L23.42,14.51 L23.16,16 L29.84,16 Z" id="PYZ" fill="#FFFFFF" fill-rule="nonzero"></path>
        <g id="Group" transform="translate(14.000000, 19.000000)" stroke-width="10">
            <rect id="Rectangle" stroke="#FFFFFF" x="7" y="5" width="1" height="1"></rect>
            <rect id="Rectangle-Copy-2" stroke="#F2A600" x="5" y="7" width="1" height="1"></rect>
        </g>
    </g>
</svg>